<svg xmlns="http://www.w3.org/2000/svg" viewBox="0 0 72.4 22.63"><defs><style>.\38 c350009-3ba2-44fe-beee-a4eaf3d89023{fill:#342e3d;}.\36 5cf81d5-a887-459b-b9d5-fd209a3df381{fill:#f2f2f2;}</style></defs><title>si-full-logo</title><g id="61789f07-7dcf-406c-bb2c-c9a5f52523f5" data-name="Layer 2"><g id="7f248821-8f36-4018-84b9-01103148c286" data-name="Layer 3"><path class="8c350009-3ba2-44fe-beee-a4eaf3d89023" d="M27.67,6c0-.24-.1-.68-.65-.68a.59.59,0,0,0-.62.55c0,.42.19.5,1.45,1.07s1.64,1.2,1.64,2c0,1-.59,2.16-2.45,2.16a2.21,2.21,0,0,1-2.54-2.23V8.68H26.3c0,.82.5,1,.73,1A.68.68,0,0,0,27.72,9c0-.47-.29-.58-1.38-1-.49-.2-1.72-.69-1.72-2a2.28,2.28,0,0,1,2.46-2.07,2.51,2.51,0,0,1,1.9.8A2.12,2.12,0,0,1,29.45,6Z"/><path class="8c350009-3ba2-44fe-beee-a4eaf3d89023" d="M30.37,4h3.91V5.55H32.09V6.64H33.8V8.22H32.09V9.43h2.19V11H30.37Z"/><path class="8c350009-3ba2-44fe-beee-a4eaf3d89023" d="M42.36,8.37a3.61,3.61,0,0,1-3.56,2.77,3.65,3.65,0,1,1,0-7.3,3.6,3.6,0,0,1,3.57,2.8H40.48a1.82,1.82,0,0,0-1.7-1.23A2,2,0,0,0,36.9,7.47a2,2,0,0,0,1.89,2.09,1.88,1.88,0,0,0,1.69-1.19Z"/><path class="8c350009-3ba2-44fe-beee-a4eaf3d89023" d="M43.3,4h2.22a3.12,3.12,0,0,1,2.17.5,2.44,2.44,0,0,1,.87,1.92,2.13,2.13,0,0,1-1.75,2.22L48.72,11H46.66L45,8.74h0V11H43.3ZM45,7.51h.64c1.06,0,1.18-.67,1.18-1,0-.64-.47-1-1.16-1H45Z"/><path class="8c350009-3ba2-44fe-beee-a4eaf3d89023" d="M49.51,4h3.91V5.55H51.23V6.64h1.71V8.22H51.23V9.43h2.19V11H49.51Z"/><path class="8c350009-3ba2-44fe-beee-a4eaf3d89023" d="M55.37,5.55H54V4h4.56V5.55H57.17V11h-1.8Z"/><path class="8c350009-3ba2-44fe-beee-a4eaf3d89023" d="M24.92,12.1h1.8v7h-1.8Z"/><path class="8c350009-3ba2-44fe-beee-a4eaf3d89023" d="M27.89,12.1h2.33a3.43,3.43,0,0,1,3.11,1.31A3.6,3.6,0,0,1,34,15.6c0,1.92-1,3.54-3.62,3.54H27.89Zm1.8,5.46h.77c1.34,0,1.72-.93,1.72-1.93a2.48,2.48,0,0,0-.34-1.3,1.48,1.48,0,0,0-1.37-.65h-.78Z"/><path class="8c350009-3ba2-44fe-beee-a4eaf3d89023" d="M34.91,12.1h3.91v1.58H36.63v1.09h1.71v1.58H36.63v1.21h2.19v1.58H34.91Z"/><path class="8c350009-3ba2-44fe-beee-a4eaf3d89023" d="M39.93,12.1h1.55l2.72,4.42,0,0-.08-4.4h1.72v7H44.31l-2.68-4.28h0l0,4.27H39.93Z"/><path class="8c350009-3ba2-44fe-beee-a4eaf3d89023" d="M48,13.68H46.61V12.1h4.56v1.58H49.79v5.46H48Z"/><path class="8c350009-3ba2-44fe-beee-a4eaf3d89023" d="M51.89,12.1h1.8v7h-1.8Z"/><path class="8c350009-3ba2-44fe-beee-a4eaf3d89023" d="M55.81,13.68H54.42V12.1H59v1.58H57.61v5.46h-1.8Z"/><path class="8c350009-3ba2-44fe-beee-a4eaf3d89023" d="M59.71,12.1h1.8v7h-1.8Z"/><path class="8c350009-3ba2-44fe-beee-a4eaf3d89023" d="M62.78,12.1h3.91v1.58H64.5v1.09h1.71v1.58H64.5v1.21h2.19v1.58H62.78Z"/><path class="8c350009-3ba2-44fe-beee-a4eaf3d89023" d="M70.56,14.16c0-.24-.1-.68-.65-.68a.59.59,0,0,0-.62.55c0,.42.19.5,1.45,1.07s1.64,1.2,1.64,2c0,1-.59,2.16-2.45,2.16A2.21,2.21,0,0,1,67.4,17v-.23h1.79c0,.82.5,1,.73,1a.68.68,0,0,0,.68-.68c0-.47-.29-.58-1.38-1-.49-.2-1.72-.69-1.72-2A2.28,2.28,0,0,1,70,12a2.51,2.51,0,0,1,1.9.8,2.12,2.12,0,0,1,.47,1.39Z"/><path class="65cf81d5-a887-459b-b9d5-fd209a3df381" d="M3.42,7.9H.51c-.08.27-.15.54-.22.82h2.8A8.43,8.43,0,0,1,3.42,7.9ZM4.77,5.84H1.4c-.12.21-.22.43-.32.64H4.26Q4.5,6.14,4.77,5.84ZM2.76,10H.07c0,.33-.06.66-.07,1H2.65A8.51,8.51,0,0,1,2.76,10ZM7.53,3.78H2.88c-.14.15-.27.31-.4.47H6.67A8.5,8.5,0,0,1,7.53,3.78ZM11.3,22.63a11.26,11.26,0,0,0,6.92-2.38H4.38A11.26,11.26,0,0,0,11.3,22.63ZM2.65,12H0a11.33,11.33,0,0,0,.13,1.17H2.79A8.52,8.52,0,0,1,2.65,12ZM11.3,0A11.36,11.36,0,0,0,9.12.21h4.36A11.36,11.36,0,0,0,11.3,0Zm8.34,10.95h3c0-.33,0-.66-.07-1h-3A8.53,8.53,0,0,1,19.64,10.95ZM5.91,18.2H2.33a11.37,11.37,0,0,0,1.59,1.69H9.79A8.47,8.47,0,0,1,5.91,18.2ZM17,17.65h3.67a11.31,11.31,0,0,0,.85-1.51H18.27A8.57,8.57,0,0,1,17,17.65ZM4,16.14H1.07a11.31,11.31,0,0,0,.85,1.51H5.28A8.57,8.57,0,0,1,4,16.14ZM19.19,8.71H22.3c-.06-.27-.13-.55-.22-.82H18.86A8.43,8.43,0,0,1,19.19,8.71ZM12.5,19.89h6.18a11.37,11.37,0,0,0,1.59-1.69h-3.9A8.47,8.47,0,0,1,12.5,19.89Zm6.2-4.47h3.14a11.22,11.22,0,0,0,.42-1.34h-3A8.46,8.46,0,0,1,18.69,15.42Zm.8-2.23h3A11.33,11.33,0,0,0,22.58,12H19.64A8.52,8.52,0,0,1,19.49,13.18ZM3,14.08H.33a11.22,11.22,0,0,0,.42,1.34H3.59A8.46,8.46,0,0,1,3,14.08ZM17,1.58H5.55c-.23.14-.46.28-.69.43H17.73C17.51,1.86,17.28,1.72,17,1.58Zm1,4.9h3.49c-.1-.22-.2-.43-.32-.64H17.51Q17.78,6.14,18,6.48ZM15.62,4.24h4.51c-.13-.16-.27-.31-.4-.47h-5A8.5,8.5,0,0,1,15.62,4.24Z"/><path class="8c350009-3ba2-44fe-beee-a4eaf3d89023" d="M13.54,10H11.16a.62.62,0,0,1,0-1.24h2.39V4.17a7.63,7.63,0,0,0-2.4-.39,7.73,7.73,0,0,0-7.71,7.71,7.64,7.64,0,0,0,.2,1.7h7.56a.45.45,0,0,1,0,.9H3.9a7.73,7.73,0,0,0,7.24,5.11,7.63,7.63,0,0,0,2.4-.39Z"/><path class="8c350009-3ba2-44fe-beee-a4eaf3d89023" d="M13.82,4.27V8.72h4.51A7.76,7.76,0,0,0,13.82,4.27ZM18.69,10H13.82V18.7A7.68,7.68,0,0,0,18.69,10Z"/></g></g></svg>