<svg xmlns="http://www.w3.org/2000/svg" viewBox="0 0 15.41 15.41"><defs><style>.ff948ed7-25fa-4316-adb0-2b9c9ca95b37{fill:#342e3d;}</style></defs><title>si-mark</title><g id="2e256a41-c197-4a52-93d0-e9fb7cf93a7e" data-name="Layer 2"><g id="b011bb7d-a7aa-4efe-90d3-4ec9a448f711" data-name="Layer 3"><path class="ff948ed7-25fa-4316-adb0-2b9c9ca95b37" d="M10.11,6.18H7.72a.62.62,0,0,1,0-1.24h2.39V.39A7.63,7.63,0,0,0,7.71,0,7.73,7.73,0,0,0,0,7.71a7.64,7.64,0,0,0,.2,1.7H7.75a.45.45,0,0,1,0,.9H.46a7.73,7.73,0,0,0,7.24,5.11,7.63,7.63,0,0,0,2.4-.39Z"/><path class="ff948ed7-25fa-4316-adb0-2b9c9ca95b37" d="M10.38.49V4.94h4.51A7.76,7.76,0,0,0,10.38.49Zm4.88,5.69H10.38v8.74a7.68,7.68,0,0,0,4.88-8.74Z"/></g></g></svg>