<svg xmlns="http://www.w3.org/2000/svg" viewBox="0 0 47.88 15.43"><defs><style>.b9ed391f-88da-4e04-b521-493bbd75d06f{fill:#342e3d;}</style></defs><title>si-type</title><g id="99448423-f357-499d-8af6-9d0246d97f30" data-name="Layer 2"><g id="e74b19d7-5a58-478c-8a30-368d48ccf581" data-name="Layer 3"><path class="b9ed391f-88da-4e04-b521-493bbd75d06f" d="M3.16,2.19c0-.24-.1-.68-.65-.68a.59.59,0,0,0-.62.55c0,.42.19.5,1.45,1.07S5,4.33,5,5.14c0,1-.59,2.16-2.45,2.16A2.21,2.21,0,0,1,0,5.07V4.84H1.79c0,.82.5,1,.73,1a.68.68,0,0,0,.68-.68c0-.47-.29-.58-1.38-1C1.33,3.89.1,3.39.1,2.07A2.28,2.28,0,0,1,2.57,0a2.51,2.51,0,0,1,1.9.8,2.12,2.12,0,0,1,.47,1.39Z"/><path class="b9ed391f-88da-4e04-b521-493bbd75d06f" d="M5.85.13H9.76V1.71H7.57V2.8H9.28V4.38H7.57V5.59H9.76V7.17H5.85Z"/><path class="b9ed391f-88da-4e04-b521-493bbd75d06f" d="M17.85,4.54A3.61,3.61,0,0,1,14.29,7.3a3.65,3.65,0,1,1,0-7.3,3.6,3.6,0,0,1,3.57,2.8H16a1.82,1.82,0,0,0-1.7-1.23,2,2,0,0,0-1.88,2.05,2,2,0,0,0,1.89,2.09A1.88,1.88,0,0,0,16,4.54Z"/><path class="b9ed391f-88da-4e04-b521-493bbd75d06f" d="M18.78.13H21a3.12,3.12,0,0,1,2.17.5A2.44,2.44,0,0,1,24,2.56a2.13,2.13,0,0,1-1.75,2.22l1.91,2.4H22.15L20.52,4.9h0V7.17H18.78ZM20.5,3.67h.64c1.06,0,1.18-.67,1.18-1,0-.64-.47-1-1.16-1H20.5Z"/><path class="b9ed391f-88da-4e04-b521-493bbd75d06f" d="M25,.13H28.9V1.71H26.71V2.8h1.71V4.38H26.71V5.59H28.9V7.17H25Z"/><path class="b9ed391f-88da-4e04-b521-493bbd75d06f" d="M30.86,1.71H29.47V.13H34V1.71H32.65V7.17h-1.8Z"/><path class="b9ed391f-88da-4e04-b521-493bbd75d06f" d="M.4,8.26H2.2v7H.4Z"/><path class="b9ed391f-88da-4e04-b521-493bbd75d06f" d="M3.38,8.26H5.7A3.43,3.43,0,0,1,8.81,9.58a3.6,3.6,0,0,1,.65,2.19c0,1.92-1,3.54-3.62,3.54H3.38Zm1.8,5.46h.77c1.34,0,1.72-.93,1.72-1.93a2.48,2.48,0,0,0-.34-1.3A1.48,1.48,0,0,0,6,9.84H5.17Z"/><path class="b9ed391f-88da-4e04-b521-493bbd75d06f" d="M10.39,8.26H14.3V9.84H12.12v1.09h1.71v1.58H12.12v1.21H14.3V15.3H10.39Z"/><path class="b9ed391f-88da-4e04-b521-493bbd75d06f" d="M15.42,8.26H17l2.72,4.42,0,0-.08-4.4h1.72v7H19.79L17.11,11h0l0,4.27H15.42Z"/><path class="b9ed391f-88da-4e04-b521-493bbd75d06f" d="M23.48,9.84H22.09V8.26h4.56V9.84H25.28V15.3h-1.8Z"/><path class="b9ed391f-88da-4e04-b521-493bbd75d06f" d="M27.38,8.26h1.8v7h-1.8Z"/><path class="b9ed391f-88da-4e04-b521-493bbd75d06f" d="M31.3,9.84H29.91V8.26h4.56V9.84H33.09V15.3H31.3Z"/><path class="b9ed391f-88da-4e04-b521-493bbd75d06f" d="M35.19,8.26H37v7h-1.8Z"/><path class="b9ed391f-88da-4e04-b521-493bbd75d06f" d="M38.27,8.26h3.91V9.84H40v1.09H41.7v1.58H40v1.21h2.19V15.3H38.27Z"/><path class="b9ed391f-88da-4e04-b521-493bbd75d06f" d="M46,10.32c0-.24-.1-.68-.65-.68a.59.59,0,0,0-.62.55c0,.42.19.5,1.45,1.07s1.64,1.2,1.64,2c0,1-.59,2.16-2.45,2.16a2.21,2.21,0,0,1-2.54-2.23V13h1.79c0,.82.5,1,.73,1a.68.68,0,0,0,.68-.68c0-.47-.29-.58-1.38-1-.49-.2-1.72-.69-1.72-2a2.28,2.28,0,0,1,2.46-2.07,2.51,2.51,0,0,1,1.9.8,2.12,2.12,0,0,1,.47,1.39Z"/></g></g></svg>