<svg xmlns="http://www.w3.org/2000/svg" viewBox="0 0 22.6 22.63"><defs><style>.a{fill:#f2f2f2;}.b{fill:#202021;}</style></defs><title>si_1</title><path class="a" d="M3.42,7.9H.51c-.08.27-.15.54-.22.82h2.8A8.43,8.43,0,0,1,3.42,7.9ZM4.77,5.84H1.4c-.12.21-.22.43-.32.64H4.26Q4.5,6.14,4.77,5.84ZM2.76,10H.07c0,.33-.06.66-.07,1H2.65A8.51,8.51,0,0,1,2.76,10ZM7.53,3.78H2.88c-.14.15-.27.31-.4.47H6.67A8.5,8.5,0,0,1,7.53,3.78ZM11.3,22.63a11.26,11.26,0,0,0,6.92-2.38H4.38A11.26,11.26,0,0,0,11.3,22.63ZM2.65,12H0a11.33,11.33,0,0,0,.13,1.17H2.79A8.52,8.52,0,0,1,2.65,12ZM11.3,0A11.36,11.36,0,0,0,9.12.21h4.36A11.36,11.36,0,0,0,11.3,0Zm8.34,10.95h3c0-.33,0-.66-.07-1h-3A8.53,8.53,0,0,1,19.64,10.95ZM5.91,18.2H2.33a11.37,11.37,0,0,0,1.59,1.69H9.79A8.47,8.47,0,0,1,5.91,18.2ZM17,17.65h3.67a11.31,11.31,0,0,0,.85-1.51H18.27A8.57,8.57,0,0,1,17,17.65ZM4,16.14H1.07a11.31,11.31,0,0,0,.85,1.51H5.28A8.57,8.57,0,0,1,4,16.14ZM19.19,8.71H22.3c-.06-.27-.13-.55-.22-.82H18.86A8.43,8.43,0,0,1,19.19,8.71ZM12.5,19.89h6.18a11.37,11.37,0,0,0,1.59-1.69h-3.9A8.47,8.47,0,0,1,12.5,19.89Zm6.2-4.47h3.14a11.22,11.22,0,0,0,.42-1.34h-3A8.46,8.46,0,0,1,18.69,15.42Zm.8-2.23h3A11.33,11.33,0,0,0,22.58,12H19.64A8.52,8.52,0,0,1,19.49,13.18ZM3,14.08H.33a11.22,11.22,0,0,0,.42,1.34H3.59A8.46,8.46,0,0,1,3,14.08ZM17,1.58H5.55c-.23.14-.46.28-.69.43H17.73C17.51,1.86,17.28,1.72,17,1.58Zm1,4.9h3.49c-.1-.22-.2-.43-.32-.64H17.51Q17.78,6.14,18,6.48ZM15.62,4.24h4.51c-.13-.16-.27-.31-.4-.47h-5A8.5,8.5,0,0,1,15.62,4.24Z"/><path class="b" d="M13.7,10H11.31a.62.62,0,0,1,0-1.24H13.7V4.17a7.63,7.63,0,0,0-2.4-.39,7.73,7.73,0,0,0-7.71,7.71,7.64,7.64,0,0,0,.2,1.7h7.56a.45.45,0,0,1,0,.9H4.05a7.73,7.73,0,0,0,7.24,5.11,7.63,7.63,0,0,0,2.4-.39Z"/><path class="b" d="M14,4.27V8.72h4.51A7.76,7.76,0,0,0,14,4.27ZM18.85,10H14V18.7A7.68,7.68,0,0,0,18.85,10Z"/></svg>