<svg xmlns="http://www.w3.org/2000/svg" viewBox="0 0 15.41 15.41"><defs><style>.\34 2108821-6473-4846-a3ee-07d9fa8879bf{fill:#f2f2f2;}</style></defs><title>si-mark-ko</title><g id="11bf1385-8e2d-4099-8804-6c660a2aaf81" data-name="Layer 2"><g id="5961e60d-4802-48c2-8b03-0d05e4ee7cfe" data-name="Layer 3"><path class="42108821-6473-4846-a3ee-07d9fa8879bf" d="M10.11,6.18H7.72a.62.62,0,0,1,0-1.24h2.39V.39A7.63,7.63,0,0,0,7.71,0,7.73,7.73,0,0,0,0,7.71a7.64,7.64,0,0,0,.2,1.7H7.75a.45.45,0,0,1,0,.9H.46a7.73,7.73,0,0,0,7.24,5.11,7.63,7.63,0,0,0,2.4-.39Z"/><path class="42108821-6473-4846-a3ee-07d9fa8879bf" d="M10.38.49V4.94h4.51A7.76,7.76,0,0,0,10.38.49Zm4.88,5.69H10.38v8.74a7.68,7.68,0,0,0,4.88-8.74Z"/></g></g></svg>